# xmcd
#
# Track frame offsets: 
#        150
#        13354
#        25648
#        37347
#        49552
#        63078
#        77602
#        90711
#        104696
#        117677
#        128996
#        141075
#        153094
#        164995
#        177125
#        190596
#        201909
#        213450
#
# Disc length: 3042 seconds
#
# Revision: 0
# Processed by: cddbd v1.5.2PL0 Copyright (c) Steve Scherf et al.
# Submitted via: ExactAudioCopy v0.99pb3
#
DISCID=020be012
DTITLE=Sons of the Pioneers - Famous Country Music Makers
DYEAR=2001
DGENRE=Country
TTITLE0=Cool Water
TTITLE1=The Timber Trail
TTITLE2=Cowboy Camp Meetin'
TTITLE3=Tumbling Tumbleweeds
TTITLE4=The Everlasting Hills of Oklahoma
TTITLE5=Blue Prairie
TTITLE6=Cigarettes, Whisky and Wild Women
TTITLE7=Chant of the Wanderer
TTITLE8=Out California Way
TTITLE9=Out in Pioneer Town
TTITLE10=160 Acres
TTITLE11=The Last Round Up
TTITLE12=Cowboy Country
TTITLE13=Santa Fe, New Mexico
TTITLE14=Down Where the Rio Flows
TTITLE15=Red River Valley
TTITLE16=Serenade to a Coyote
TTITLE17=Riders in the Sky
EXTD=
EXTT0=
EXTT1=
EXTT2=
EXTT3=
EXTT4=
EXTT5=
EXTT6=
EXTT7=
EXTT8=
EXTT9=
EXTT10=
EXTT11=
EXTT12=
EXTT13=
EXTT14=
EXTT15=
EXTT16=
EXTT17=
PLAYORDER=
